<mxfile host="Electron" agent="Mozilla/5.0 (X11; Linux x86_64) AppleWebKit/537.36 (KHTML, like Gecko) draw.io/24.7.5 Chrome/126.0.6478.183 Electron/31.3.0 Safari/537.36" version="24.7.5" pages="5">
  <diagram name="proxy-good-placement" id="Q0_JOQFlGntMVAHrjVne">
    <mxGraphModel dx="719" dy="711" grid="1" gridSize="10" guides="1" tooltips="1" connect="1" arrows="1" fold="1" page="1" pageScale="1" pageWidth="850" pageHeight="1100" math="0" shadow="0">
      <root>
        <mxCell id="0" />
        <mxCell id="1" parent="0" />
        <mxCell id="OVO3HxUDzb1MvLxgX6vo-1" value="Server" style="rounded=0;whiteSpace=wrap;html=1;" vertex="1" parent="1">
          <mxGeometry x="425" y="430" width="120" height="60" as="geometry" />
        </mxCell>
        <mxCell id="OVO3HxUDzb1MvLxgX6vo-4" style="edgeStyle=orthogonalEdgeStyle;rounded=0;orthogonalLoop=1;jettySize=auto;html=1;" edge="1" parent="1" source="OVO3HxUDzb1MvLxgX6vo-2" target="OVO3HxUDzb1MvLxgX6vo-3">
          <mxGeometry relative="1" as="geometry" />
        </mxCell>
        <mxCell id="OVO3HxUDzb1MvLxgX6vo-2" value="Client" style="rounded=0;whiteSpace=wrap;html=1;" vertex="1" parent="1">
          <mxGeometry x="80" y="430" width="120" height="60" as="geometry" />
        </mxCell>
        <mxCell id="OVO3HxUDzb1MvLxgX6vo-5" style="edgeStyle=orthogonalEdgeStyle;rounded=0;orthogonalLoop=1;jettySize=auto;html=1;entryX=0;entryY=0.5;entryDx=0;entryDy=0;" edge="1" parent="1" source="OVO3HxUDzb1MvLxgX6vo-3" target="OVO3HxUDzb1MvLxgX6vo-1">
          <mxGeometry relative="1" as="geometry" />
        </mxCell>
        <mxCell id="qn3kUqIIGzHaHftbqPBU-4" style="edgeStyle=orthogonalEdgeStyle;rounded=0;orthogonalLoop=1;jettySize=auto;html=1;" edge="1" parent="1" source="OVO3HxUDzb1MvLxgX6vo-3" target="qn3kUqIIGzHaHftbqPBU-3">
          <mxGeometry relative="1" as="geometry" />
        </mxCell>
        <mxCell id="OVO3HxUDzb1MvLxgX6vo-3" value="Proxy" style="rounded=0;whiteSpace=wrap;html=1;" vertex="1" parent="1">
          <mxGeometry x="253" y="375" width="120" height="60" as="geometry" />
        </mxCell>
        <mxCell id="qn3kUqIIGzHaHftbqPBU-2" style="edgeStyle=orthogonalEdgeStyle;rounded=0;orthogonalLoop=1;jettySize=auto;html=1;" edge="1" parent="1" source="qn3kUqIIGzHaHftbqPBU-1" target="OVO3HxUDzb1MvLxgX6vo-3">
          <mxGeometry relative="1" as="geometry" />
        </mxCell>
        <mxCell id="qn3kUqIIGzHaHftbqPBU-1" value="Client" style="rounded=0;whiteSpace=wrap;html=1;" vertex="1" parent="1">
          <mxGeometry x="80" y="320" width="120" height="60" as="geometry" />
        </mxCell>
        <mxCell id="qn3kUqIIGzHaHftbqPBU-3" value="Server" style="rounded=0;whiteSpace=wrap;html=1;" vertex="1" parent="1">
          <mxGeometry x="425" y="320" width="120" height="60" as="geometry" />
        </mxCell>
      </root>
    </mxGraphModel>
  </diagram>
  <diagram name="proxy-bad-placement" id="TLses9Qr2GsE4SqqiN5D">
    <mxGraphModel dx="868" dy="858" grid="1" gridSize="10" guides="1" tooltips="1" connect="1" arrows="1" fold="1" page="1" pageScale="1" pageWidth="850" pageHeight="1100" math="0" shadow="0">
      <root>
        <mxCell id="rz7KlOqQ0z3J__7u1aDH-0" />
        <mxCell id="rz7KlOqQ0z3J__7u1aDH-1" parent="rz7KlOqQ0z3J__7u1aDH-0" />
        <mxCell id="qRNTeKmA-D811ctvWS4B-14" style="edgeStyle=orthogonalEdgeStyle;rounded=0;orthogonalLoop=1;jettySize=auto;html=1;entryX=1;entryY=0.5;entryDx=0;entryDy=0;exitX=0.25;exitY=1;exitDx=0;exitDy=0;" edge="1" parent="rz7KlOqQ0z3J__7u1aDH-1" source="qRNTeKmA-D811ctvWS4B-5" target="qRNTeKmA-D811ctvWS4B-8">
          <mxGeometry relative="1" as="geometry" />
        </mxCell>
        <mxCell id="qRNTeKmA-D811ctvWS4B-15" style="edgeStyle=orthogonalEdgeStyle;rounded=0;orthogonalLoop=1;jettySize=auto;html=1;entryX=1;entryY=0.5;entryDx=0;entryDy=0;" edge="1" parent="rz7KlOqQ0z3J__7u1aDH-1" source="qRNTeKmA-D811ctvWS4B-5" target="qRNTeKmA-D811ctvWS4B-0">
          <mxGeometry relative="1" as="geometry">
            <Array as="points">
              <mxPoint x="610" y="580" />
              <mxPoint x="200" y="580" />
            </Array>
          </mxGeometry>
        </mxCell>
        <mxCell id="qRNTeKmA-D811ctvWS4B-5" value="Proxy" style="rounded=0;whiteSpace=wrap;html=1;" vertex="1" parent="rz7KlOqQ0z3J__7u1aDH-1">
          <mxGeometry x="520" y="425" width="120" height="60" as="geometry" />
        </mxCell>
        <mxCell id="qRNTeKmA-D811ctvWS4B-9" value="" style="group" vertex="1" connectable="0" parent="rz7KlOqQ0z3J__7u1aDH-1">
          <mxGeometry x="80" y="320" width="120" height="270" as="geometry" />
        </mxCell>
        <mxCell id="qRNTeKmA-D811ctvWS4B-0" value="Server" style="rounded=0;whiteSpace=wrap;html=1;" vertex="1" parent="qRNTeKmA-D811ctvWS4B-9">
          <mxGeometry y="235" width="120" height="60" as="geometry" />
        </mxCell>
        <mxCell id="qRNTeKmA-D811ctvWS4B-2" value="Client" style="rounded=0;whiteSpace=wrap;html=1;" vertex="1" parent="qRNTeKmA-D811ctvWS4B-9">
          <mxGeometry y="50" width="120" height="60" as="geometry" />
        </mxCell>
        <mxCell id="qRNTeKmA-D811ctvWS4B-7" value="Client" style="rounded=0;whiteSpace=wrap;html=1;" vertex="1" parent="qRNTeKmA-D811ctvWS4B-9">
          <mxGeometry y="-20" width="120" height="60" as="geometry" />
        </mxCell>
        <mxCell id="qRNTeKmA-D811ctvWS4B-8" value="Server" style="rounded=0;whiteSpace=wrap;html=1;" vertex="1" parent="qRNTeKmA-D811ctvWS4B-9">
          <mxGeometry y="165" width="120" height="60" as="geometry" />
        </mxCell>
        <mxCell id="qRNTeKmA-D811ctvWS4B-12" style="edgeStyle=orthogonalEdgeStyle;rounded=0;orthogonalLoop=1;jettySize=auto;html=1;entryX=0.25;entryY=0;entryDx=0;entryDy=0;" edge="1" parent="rz7KlOqQ0z3J__7u1aDH-1" source="qRNTeKmA-D811ctvWS4B-2" target="qRNTeKmA-D811ctvWS4B-5">
          <mxGeometry relative="1" as="geometry" />
        </mxCell>
        <mxCell id="qRNTeKmA-D811ctvWS4B-13" style="edgeStyle=orthogonalEdgeStyle;rounded=0;orthogonalLoop=1;jettySize=auto;html=1;entryX=0.75;entryY=0;entryDx=0;entryDy=0;" edge="1" parent="rz7KlOqQ0z3J__7u1aDH-1" source="qRNTeKmA-D811ctvWS4B-7" target="qRNTeKmA-D811ctvWS4B-5">
          <mxGeometry relative="1" as="geometry" />
        </mxCell>
      </root>
    </mxGraphModel>
  </diagram>
  <diagram id="Odpl1QiEMgriO5cBtfLl" name="dns">
    <mxGraphModel dx="868" dy="858" grid="1" gridSize="10" guides="1" tooltips="1" connect="1" arrows="1" fold="1" page="1" pageScale="1" pageWidth="850" pageHeight="1100" math="0" shadow="0">
      <root>
        <mxCell id="0" />
        <mxCell id="1" parent="0" />
        <mxCell id="dkDEgc0g8XS43fj__bmQ-1" value="Server" style="rounded=0;whiteSpace=wrap;html=1;" vertex="1" parent="1">
          <mxGeometry x="425" y="430" width="120" height="60" as="geometry" />
        </mxCell>
        <mxCell id="dkDEgc0g8XS43fj__bmQ-6" value="DNS" style="rounded=0;whiteSpace=wrap;html=1;" vertex="1" parent="1">
          <mxGeometry x="253" y="190" width="120" height="60" as="geometry" />
        </mxCell>
        <mxCell id="dkDEgc0g8XS43fj__bmQ-11" style="edgeStyle=orthogonalEdgeStyle;rounded=0;orthogonalLoop=1;jettySize=auto;html=1;entryX=0;entryY=0.5;entryDx=0;entryDy=0;" edge="1" parent="1" source="dkDEgc0g8XS43fj__bmQ-8" target="dkDEgc0g8XS43fj__bmQ-9">
          <mxGeometry relative="1" as="geometry" />
        </mxCell>
        <mxCell id="dkDEgc0g8XS43fj__bmQ-12" style="edgeStyle=orthogonalEdgeStyle;rounded=0;orthogonalLoop=1;jettySize=auto;html=1;entryX=0;entryY=0.5;entryDx=0;entryDy=0;" edge="1" parent="1" source="dkDEgc0g8XS43fj__bmQ-8" target="dkDEgc0g8XS43fj__bmQ-1">
          <mxGeometry relative="1" as="geometry">
            <Array as="points">
              <mxPoint x="312" y="360" />
              <mxPoint x="312" y="460" />
            </Array>
          </mxGeometry>
        </mxCell>
        <mxCell id="dkDEgc0g8XS43fj__bmQ-13" style="edgeStyle=orthogonalEdgeStyle;rounded=0;orthogonalLoop=1;jettySize=auto;html=1;entryX=0;entryY=0.5;entryDx=0;entryDy=0;dashed=1;fillColor=#ffe6cc;strokeColor=#f08c00;startArrow=classic;startFill=1;" edge="1" parent="1" source="dkDEgc0g8XS43fj__bmQ-8" target="dkDEgc0g8XS43fj__bmQ-6">
          <mxGeometry relative="1" as="geometry">
            <Array as="points">
              <mxPoint x="140" y="220" />
            </Array>
          </mxGeometry>
        </mxCell>
        <mxCell id="dkDEgc0g8XS43fj__bmQ-14" value="Lookup" style="edgeLabel;html=1;align=center;verticalAlign=middle;resizable=0;points=[];labelBackgroundColor=#FFFFFF;" vertex="1" connectable="0" parent="dkDEgc0g8XS43fj__bmQ-13">
          <mxGeometry x="0.2647" y="1" relative="1" as="geometry">
            <mxPoint as="offset" />
          </mxGeometry>
        </mxCell>
        <mxCell id="dkDEgc0g8XS43fj__bmQ-8" value="Client" style="rounded=0;whiteSpace=wrap;html=1;" vertex="1" parent="1">
          <mxGeometry x="80" y="320" width="120" height="60" as="geometry" />
        </mxCell>
        <mxCell id="dkDEgc0g8XS43fj__bmQ-9" value="Server" style="rounded=0;whiteSpace=wrap;html=1;" vertex="1" parent="1">
          <mxGeometry x="425" y="320" width="120" height="60" as="geometry" />
        </mxCell>
      </root>
    </mxGraphModel>
  </diagram>
  <diagram id="mXEKmE-BPa_Tf9sA0kut" name="tcp-proxy">
    <mxGraphModel dx="719" dy="711" grid="1" gridSize="10" guides="1" tooltips="1" connect="1" arrows="1" fold="1" page="1" pageScale="1" pageWidth="850" pageHeight="1100" math="0" shadow="0">
      <root>
        <mxCell id="0" />
        <mxCell id="1" parent="0" />
        <mxCell id="5oWZvb0Gn66Zd_F749Qd-1" value="Server" style="rounded=0;whiteSpace=wrap;html=1;" vertex="1" parent="1">
          <mxGeometry x="425" y="360" width="120" height="60" as="geometry" />
        </mxCell>
        <mxCell id="5oWZvb0Gn66Zd_F749Qd-8" value="Client" style="rounded=0;whiteSpace=wrap;html=1;" vertex="1" parent="1">
          <mxGeometry x="110" y="320" width="90" height="60" as="geometry" />
        </mxCell>
        <mxCell id="5oWZvb0Gn66Zd_F749Qd-9" value="Server" style="rounded=0;whiteSpace=wrap;html=1;" vertex="1" parent="1">
          <mxGeometry x="425" y="280" width="120" height="60" as="geometry" />
        </mxCell>
        <mxCell id="5oWZvb0Gn66Zd_F749Qd-11" style="edgeStyle=orthogonalEdgeStyle;rounded=0;orthogonalLoop=1;jettySize=auto;html=1;entryX=0;entryY=0.5;entryDx=0;entryDy=0;exitX=1;exitY=0.5;exitDx=0;exitDy=0;" edge="1" parent="1" source="5oWZvb0Gn66Zd_F749Qd-10" target="5oWZvb0Gn66Zd_F749Qd-9">
          <mxGeometry relative="1" as="geometry">
            <Array as="points">
              <mxPoint x="200" y="340" />
              <mxPoint x="310" y="340" />
              <mxPoint x="310" y="310" />
            </Array>
          </mxGeometry>
        </mxCell>
        <mxCell id="5oWZvb0Gn66Zd_F749Qd-16" style="edgeStyle=orthogonalEdgeStyle;rounded=0;orthogonalLoop=1;jettySize=auto;html=1;entryX=0;entryY=0.5;entryDx=0;entryDy=0;" edge="1" parent="1" source="5oWZvb0Gn66Zd_F749Qd-10" target="5oWZvb0Gn66Zd_F749Qd-1">
          <mxGeometry relative="1" as="geometry">
            <Array as="points">
              <mxPoint x="310" y="360" />
              <mxPoint x="310" y="390" />
            </Array>
          </mxGeometry>
        </mxCell>
        <mxCell id="5oWZvb0Gn66Zd_F749Qd-10" value="Proxy" style="rounded=0;whiteSpace=wrap;html=1;fillColor=#dae8fc;strokeColor=#6c8ebf;textDirection=vertical-lr;verticalAlign=middle;align=center;direction=east;" vertex="1" parent="1">
          <mxGeometry x="180" y="330" width="20" height="40" as="geometry" />
        </mxCell>
      </root>
    </mxGraphModel>
  </diagram>
  <diagram id="nryIHUBnGtkMohAWRY6F" name="ipvs-example">
    <mxGraphModel dx="719" dy="711" grid="1" gridSize="10" guides="1" tooltips="1" connect="1" arrows="1" fold="1" page="1" pageScale="1" pageWidth="850" pageHeight="1100" math="0" shadow="0">
      <root>
        <mxCell id="0" />
        <mxCell id="1" parent="0" />
        <mxCell id="mlKblp6DbIgl48RAzElQ-2" style="edgeStyle=orthogonalEdgeStyle;rounded=0;orthogonalLoop=1;jettySize=auto;html=1;entryX=0.5;entryY=0;entryDx=0;entryDy=0;" edge="1" parent="1" source="mlKblp6DbIgl48RAzElQ-1" target="mlKblp6DbIgl48RAzElQ-3">
          <mxGeometry relative="1" as="geometry">
            <mxPoint x="320" y="360" as="targetPoint" />
          </mxGeometry>
        </mxCell>
        <mxCell id="mlKblp6DbIgl48RAzElQ-5" value="Connect 10.0.0.1" style="edgeLabel;html=1;align=center;verticalAlign=middle;resizable=0;points=[];labelBackgroundColor=default;" vertex="1" connectable="0" parent="mlKblp6DbIgl48RAzElQ-2">
          <mxGeometry x="0.0676" y="2" relative="1" as="geometry">
            <mxPoint as="offset" />
          </mxGeometry>
        </mxCell>
        <mxCell id="mlKblp6DbIgl48RAzElQ-1" value="Client software" style="rounded=0;whiteSpace=wrap;html=1;" vertex="1" parent="1">
          <mxGeometry x="320" y="210" width="120" height="60" as="geometry" />
        </mxCell>
        <mxCell id="mlKblp6DbIgl48RAzElQ-7" style="edgeStyle=orthogonalEdgeStyle;rounded=0;orthogonalLoop=1;jettySize=auto;html=1;" edge="1" parent="1" source="mlKblp6DbIgl48RAzElQ-3" target="mlKblp6DbIgl48RAzElQ-6">
          <mxGeometry relative="1" as="geometry" />
        </mxCell>
        <mxCell id="mlKblp6DbIgl48RAzElQ-8" value="Send packet" style="edgeLabel;html=1;align=center;verticalAlign=middle;resizable=0;points=[];labelBackgroundColor=#FFFFFF;" vertex="1" connectable="0" parent="mlKblp6DbIgl48RAzElQ-7">
          <mxGeometry x="-0.0381" y="1" relative="1" as="geometry">
            <mxPoint as="offset" />
          </mxGeometry>
        </mxCell>
        <mxCell id="mlKblp6DbIgl48RAzElQ-3" value="IPVS&lt;div&gt;Rewrite&lt;/div&gt;" style="rounded=0;whiteSpace=wrap;html=1;" vertex="1" parent="1">
          <mxGeometry x="320" y="330" width="120" height="60" as="geometry" />
        </mxCell>
        <mxCell id="mlKblp6DbIgl48RAzElQ-6" value="Server&lt;div&gt;1.2.3.4&lt;/div&gt;" style="rounded=0;whiteSpace=wrap;html=1;" vertex="1" parent="1">
          <mxGeometry x="320" y="470" width="120" height="60" as="geometry" />
        </mxCell>
      </root>
    </mxGraphModel>
  </diagram>
</mxfile>
